<svg width="20" height="20" viewBox="0 0 20 20" fill="none" xmlns="http://www.w3.org/2000/svg">
<mask id="mask0_263_2073" style="mask-type:alpha" maskUnits="userSpaceOnUse" x="0" y="0" width="20" height="20">
<rect width="20" height="20" fill="#D9D9D9"/>
</mask>
<g mask="url(#mask0_263_2073)">
<path d="M13.4263 10.5629L11.6907 13.3577C11.57 13.5458 11.3983 13.6243 11.1755 13.5934C10.9529 13.5624 10.8148 13.4347 10.7613 13.2104L10.1459 10.7248L4.23405 16.6446C4.11863 16.76 3.97572 16.8212 3.8053 16.8281C3.63502 16.8351 3.48523 16.7739 3.35592 16.6446C3.23523 16.5239 3.17488 16.3776 3.17488 16.2057C3.17488 16.0336 3.23523 15.8872 3.35592 15.7665L9.27572 9.83378L6.79822 9.21836C6.57391 9.16489 6.44488 9.02815 6.41113 8.80815C6.37752 8.58801 6.45474 8.41759 6.6428 8.2969L9.43759 6.57419L9.19572 3.28252C9.17322 3.05822 9.26162 2.89419 9.46092 2.79044C9.66009 2.68683 9.84516 2.70926 10.0161 2.85773L12.5401 4.98128L15.5899 3.74252C15.8003 3.65266 15.9854 3.6876 16.1451 3.84732C16.3048 4.00704 16.3398 4.19218 16.2501 4.40273L15.0193 7.45232L17.1428 9.96357C17.2913 10.1345 17.315 10.321 17.2141 10.5229C17.1131 10.7247 16.9504 10.8145 16.7261 10.7921L13.4263 10.5629ZM3.18447 5.06773C3.10641 4.98968 3.06738 4.90044 3.06738 4.80002C3.06738 4.69961 3.10641 4.61044 3.18447 4.53252L4.01926 3.69753C4.09731 3.61961 4.18655 3.58065 4.28697 3.58065C4.38738 3.58065 4.47662 3.61961 4.55467 3.69753L5.38947 4.53252C5.46752 4.61044 5.50655 4.69961 5.50655 4.80002C5.50655 4.90044 5.46752 4.98968 5.38947 5.06773L4.55467 5.90273C4.47662 5.98065 4.38738 6.01961 4.28697 6.01961C4.18655 6.01961 4.09731 5.98065 4.01926 5.90273L3.18447 5.06773ZM11.5626 11.1961L12.7549 9.25357L15.037 9.42357L13.5626 7.6719L14.4201 5.55961L12.3078 6.41711L10.5561 4.95544L10.7261 7.22482L8.79176 8.43003L11.0032 8.97648L11.5626 11.1961ZM14.9328 16.8161L14.0978 15.9813C14.0199 15.9032 13.9809 15.814 13.9809 15.7136C13.9809 15.6132 14.0199 15.5239 14.0978 15.4459L14.9328 14.6111C15.0109 14.533 15.1001 14.494 15.2005 14.494C15.3009 14.494 15.3901 14.533 15.468 14.6111L16.303 15.4459C16.3809 15.5239 16.4199 15.6132 16.4199 15.7136C16.4199 15.814 16.3809 15.9032 16.303 15.9813L15.468 16.8161C15.3901 16.8941 15.3009 16.9331 15.2005 16.9331C15.1001 16.9331 15.0109 16.8941 14.9328 16.8161Z" fill="white"/>
</g>
</svg>
