<svg width="20" height="20" viewBox="0 0 20 20" fill="none" xmlns="http://www.w3.org/2000/svg">
<path d="M7.54921 3.78544C8.04755 2.32711 10.0625 2.28294 10.6534 3.65294L10.7034 3.78628L11.3759 5.75294C11.53 6.20397 11.7791 6.6167 12.1062 6.96329C12.4334 7.30989 12.8311 7.58228 13.2725 7.76211L13.4534 7.82961L15.42 8.50128C16.8784 8.99961 16.9225 11.0146 15.5534 11.6054L15.42 11.6554L13.4534 12.3279C13.0022 12.482 12.5893 12.731 12.2426 13.0582C11.8958 13.3853 11.6233 13.7831 11.4434 14.2246L11.3759 14.4046L10.7042 16.3721C10.2059 17.8304 8.19088 17.8746 7.60088 16.5054L7.54921 16.3721L6.87755 14.4054C6.72353 13.9543 6.47452 13.5414 6.14733 13.1946C5.82014 12.8479 5.42238 12.5754 4.98088 12.3954L4.80088 12.3279L2.83421 11.6563C1.37505 11.1579 1.33088 9.14294 2.70088 8.55294L2.83421 8.50128L4.80088 7.82961C5.25191 7.67549 5.66464 7.42644 6.01123 7.09925C6.35783 6.77206 6.63022 6.37435 6.81005 5.93294L6.87755 5.75294L7.54921 3.78544ZM9.12671 4.32378L8.45505 6.29044C8.22037 6.9782 7.8386 7.60653 7.33633 8.13169C6.83405 8.65685 6.22334 9.06621 5.54671 9.33127L5.33838 9.40711L3.37171 10.0788L5.33838 10.7504C6.02613 10.9851 6.65447 11.3669 7.17963 11.8692C7.70479 12.3714 8.11415 12.9822 8.37921 13.6588L8.45505 13.8671L9.12671 15.8338L9.79838 13.8671C10.0331 13.1794 10.4148 12.551 10.9171 12.0259C11.4194 11.5007 12.0301 11.0913 12.7067 10.8263L12.915 10.7513L14.8817 10.0788L12.915 9.40711C12.2273 9.17243 11.599 8.79067 11.0738 8.28839C10.5486 7.78611 10.1393 7.1754 9.87422 6.49878L9.79922 6.29044L9.12671 4.32378ZM15.7934 0.91211C15.9493 0.912109 16.1021 0.955841 16.2343 1.03834C16.3666 1.12083 16.4731 1.23878 16.5417 1.37878L16.5817 1.47628L16.8734 2.33128L17.7292 2.62294C17.8855 2.67602 18.0224 2.77429 18.1227 2.90529C18.2231 3.03629 18.2822 3.19412 18.2928 3.35879C18.3033 3.52346 18.2647 3.68755 18.1819 3.83027C18.0991 3.97298 17.9757 4.08789 17.8275 4.16044L17.7292 4.20044L16.8742 4.49211L16.5825 5.34794C16.5294 5.50413 16.431 5.64102 16.3 5.74127C16.1689 5.84151 16.0111 5.9006 15.8464 5.91104C15.6818 5.92149 15.5177 5.88281 15.375 5.79992C15.2324 5.71704 15.1175 5.59367 15.045 5.44544L15.005 5.34794L14.7134 4.49294L13.8575 4.20128C13.7013 4.1482 13.5644 4.04993 13.464 3.91893C13.3637 3.78793 13.3045 3.63009 13.294 3.46543C13.2835 3.30076 13.322 3.13667 13.4049 2.99395C13.4877 2.85124 13.611 2.73633 13.7592 2.66378L13.8575 2.62378L14.7125 2.33211L15.0042 1.47628C15.0604 1.31163 15.1667 1.1687 15.3082 1.06753C15.4498 0.96635 15.6194 0.912005 15.7934 0.91211Z" fill="white"/>
</svg>
