<svg width="36" height="36" viewBox="0 0 36 36" fill="none" xmlns="http://www.w3.org/2000/svg">
<rect width="36" height="36" fill="#1F172B"/>
<mask id="mask0_220_8871" style="mask-type:alpha" maskUnits="userSpaceOnUse" x="8" y="8" width="20" height="20">
<rect width="20" height="20" transform="matrix(-1 0 0 1 28 8)" fill="#D9D9D9"/>
</mask>
<g mask="url(#mask0_220_8871)">
<path d="M11.375 18.75H20.25C20.4625 18.75 20.6406 18.6785 20.7844 18.5356C20.9281 18.3927 21 18.2156 21 18.0044C21 17.7931 20.9281 17.6146 20.7844 17.4688C20.6406 17.3229 20.4625 17.25 20.25 17.25H11.375L12.0371 16.5879C12.1929 16.4321 12.2708 16.2535 12.2708 16.0521C12.2708 15.8507 12.1978 15.6736 12.0516 15.5208C11.8922 15.3681 11.7118 15.2917 11.5104 15.2917C11.309 15.2917 11.1322 15.3678 10.98 15.52L9.02002 17.48C8.86778 17.6322 8.79167 17.8068 8.79167 18.0038C8.79167 18.2008 8.86806 18.3731 9.02083 18.5208L10.9801 20.4801C11.1322 20.6322 11.3056 20.7049 11.5 20.6979C11.6944 20.691 11.8714 20.6111 12.0308 20.4583C12.1769 20.3056 12.25 20.1285 12.25 19.9271C12.25 19.7257 12.1739 19.5489 12.0217 19.3967L11.375 18.75ZM15.5 15V12.5H23.5V23.5H15.5V21C15.5 20.7875 15.4285 20.6094 15.2856 20.4656C15.1427 20.3219 14.9656 20.25 14.7544 20.25C14.5431 20.25 14.3646 20.3219 14.2188 20.4656C14.0729 20.6094 14 20.7875 14 21V23.5C14 23.9125 14.1469 24.2656 14.4406 24.5594C14.7344 24.8531 15.0875 25 15.5 25H23.5C23.9125 25 24.2656 24.8531 24.5594 24.5594C24.8531 24.2656 25 23.9125 25 23.5V12.5C25 12.0875 24.8531 11.7344 24.5594 11.4406C24.2656 11.1469 23.9125 11 23.5 11H15.5C15.0875 11 14.7344 11.1469 14.4406 11.4406C14.1469 11.7344 14 12.0875 14 12.5V15C14 15.2125 14.0715 15.3906 14.2144 15.5344C14.3573 15.6781 14.5344 15.75 14.7456 15.75C14.9569 15.75 15.1354 15.6781 15.2812 15.5344C15.4271 15.3906 15.5 15.2125 15.5 15Z" fill="white"/>
</g>
</svg>
