<svg width="20" height="20" viewBox="0 0 20 20" fill="none" xmlns="http://www.w3.org/2000/svg">
<mask id="mask0_309_2387" style="mask-type:alpha" maskUnits="userSpaceOnUse" x="0" y="0" width="20" height="20">
<rect width="20" height="20" fill="#D9D9D9"/>
</mask>
<g mask="url(#mask0_309_2387)">
<path d="M10.0002 14.5506L6.69245 15.9704C6.19037 16.1851 5.71336 16.144 5.26141 15.8471C4.80947 15.5501 4.5835 15.1324 4.5835 14.5939V4.42247C4.5835 4.0015 4.72933 3.64518 5.021 3.35352C5.31266 3.06185 5.66898 2.91602 6.08995 2.91602H13.9104C14.3313 2.91602 14.6877 3.06185 14.9793 3.35352C15.271 3.64518 15.4168 4.0015 15.4168 4.42247V14.5939C15.4168 15.1324 15.1909 15.5501 14.7389 15.8471C14.287 16.144 13.81 16.1851 13.3079 15.9704L10.0002 14.5506ZM10.0002 13.166L13.8062 14.8054C13.8918 14.8428 13.9732 14.8348 14.0506 14.7814C14.1281 14.728 14.1668 14.6558 14.1668 14.565V4.42247C14.1668 4.35831 14.1401 4.29956 14.0866 4.24622C14.0333 4.19275 13.9745 4.16602 13.9104 4.16602H6.08995C6.02579 4.16602 5.96704 4.19275 5.9137 4.24622C5.86023 4.29956 5.8335 4.35831 5.8335 4.42247V14.565C5.8335 14.6558 5.87225 14.728 5.94975 14.7814C6.02711 14.8348 6.10857 14.8428 6.19412 14.8054L10.0002 13.166Z" fill="white"/>
</g>
</svg>
