<svg width="36" height="36" viewBox="0 0 36 36" fill="none" xmlns="http://www.w3.org/2000/svg">
<rect width="36" height="36" fill="#1F172B"/>
<mask id="mask0_220_9628" style="mask-type:alpha" maskUnits="userSpaceOnUse" x="8" y="8" width="20" height="20">
<rect x="8" y="8" width="20" height="20" fill="#D9D9D9"/>
</mask>
<g mask="url(#mask0_220_9628)">
<path d="M16.25 23C16.0375 23 15.8594 22.9285 15.7156 22.7856C15.5719 22.6427 15.5 22.4656 15.5 22.2544C15.5 22.0431 15.5719 21.8646 15.7156 21.7188C15.8594 21.5729 16.0375 21.5 16.25 21.5H24.25C24.4625 21.5 24.6406 21.5715 24.7844 21.7144C24.9281 21.8573 25 22.0344 25 22.2456C25 22.4569 24.9281 22.6354 24.7844 22.7812C24.6406 22.9271 24.4625 23 24.25 23H16.25ZM16.25 18.75C16.0375 18.75 15.8594 18.6785 15.7156 18.5356C15.5719 18.3927 15.5 18.2156 15.5 18.0044C15.5 17.7931 15.5719 17.6146 15.7156 17.4688C15.8594 17.3229 16.0375 17.25 16.25 17.25H24.25C24.4625 17.25 24.6406 17.3215 24.7844 17.4644C24.9281 17.6073 25 17.7844 25 17.9956C25 18.2069 24.9281 18.3854 24.7844 18.5312C24.6406 18.6771 24.4625 18.75 24.25 18.75H16.25ZM16.25 14.5C16.0375 14.5 15.8594 14.4285 15.7156 14.2856C15.5719 14.1427 15.5 13.9656 15.5 13.7544C15.5 13.5431 15.5719 13.3646 15.7156 13.2188C15.8594 13.0729 16.0375 13 16.25 13H24.25C24.4625 13 24.6406 13.0715 24.7844 13.2144C24.9281 13.3573 25 13.5344 25 13.7456C25 13.9569 24.9281 14.1354 24.7844 14.2812C24.6406 14.4271 24.4625 14.5 24.25 14.5H16.25ZM12.4956 23.75C12.0819 23.75 11.7292 23.6027 11.4375 23.3081C11.1458 23.0135 11 22.6593 11 22.2456C11 21.8319 11.1473 21.4792 11.4419 21.1875C11.7365 20.8958 12.0907 20.75 12.5044 20.75C12.9181 20.75 13.2708 20.8973 13.5625 21.1919C13.8542 21.4865 14 21.8407 14 22.2544C14 22.6681 13.8527 23.0208 13.5581 23.3125C13.2635 23.6042 12.9093 23.75 12.4956 23.75ZM12.4956 19.5C12.0819 19.5 11.7292 19.3527 11.4375 19.0581C11.1458 18.7635 11 18.4093 11 17.9956C11 17.5819 11.1473 17.2292 11.4419 16.9375C11.7365 16.6458 12.0907 16.5 12.5044 16.5C12.9181 16.5 13.2708 16.6473 13.5625 16.9419C13.8542 17.2365 14 17.5907 14 18.0044C14 18.4181 13.8527 18.7708 13.5581 19.0625C13.2635 19.3542 12.9093 19.5 12.4956 19.5ZM12.4956 15.25C12.0819 15.25 11.7292 15.1027 11.4375 14.8081C11.1458 14.5135 11 14.1593 11 13.7456C11 13.3319 11.1473 12.9792 11.4419 12.6875C11.7365 12.3958 12.0907 12.25 12.5044 12.25C12.9181 12.25 13.2708 12.3973 13.5625 12.6919C13.8542 12.9865 14 13.3407 14 13.7544C14 14.1681 13.8527 14.5208 13.5581 14.8125C13.2635 15.1042 12.9093 15.25 12.4956 15.25Z" fill="white"/>
</g>
</svg>
