<svg width="20" height="20" viewBox="0 0 20 20" fill="none" xmlns="http://www.w3.org/2000/svg">
<mask id="mask0_309_3747" style="mask-type:alpha" maskUnits="userSpaceOnUse" x="0" y="0" width="20" height="20">
<rect width="20" height="20" fill="#D9D9D9"/>
</mask>
<g mask="url(#mask0_309_3747)">
<path d="M3.93717 16.4577C3.1519 16.4577 2.48419 16.1805 1.93405 15.626C1.38377 15.0714 1.10009 14.3962 1.08301 13.6002C1.08301 13.4827 1.08863 13.3668 1.09988 13.2525C1.11113 13.1382 1.13065 13.0212 1.15842 12.9016L2.90842 5.90164C3.09079 5.19928 3.46204 4.63025 4.02218 4.19456C4.58231 3.75886 5.22065 3.54102 5.93717 3.54102H14.0622C14.7787 3.54102 15.417 3.75886 15.9772 4.19456C16.5373 4.63025 16.9086 5.19928 17.0909 5.90164L18.8409 12.9016C18.8687 13.0212 18.8917 13.1416 18.9099 13.2629C18.9281 13.3841 18.9372 13.5035 18.9372 13.621C18.9372 14.417 18.6565 15.0888 18.0951 15.6364C17.5336 16.1839 16.8561 16.4577 16.0628 16.4577C15.5164 16.4577 15.012 16.3143 14.5495 16.0275C14.0868 15.7405 13.7359 15.3518 13.4966 14.8614L12.9051 13.6452C12.8197 13.4716 12.6915 13.3414 12.5205 13.2546C12.3495 13.1678 12.169 13.1243 11.9788 13.1243H8.02051C7.83176 13.1243 7.65155 13.1671 7.47988 13.2525C7.30822 13.338 7.17968 13.4689 7.09426 13.6452L6.5028 14.8614C6.26891 15.3573 5.91884 15.7473 5.45259 16.0314C4.98634 16.3156 4.4812 16.4577 3.93717 16.4577ZM4.00176 15.2077C4.30162 15.2077 4.57655 15.1275 4.82655 14.9673C5.07655 14.807 5.26516 14.5928 5.39238 14.3248L5.97572 13.1291C6.16752 12.7362 6.44891 12.4289 6.81988 12.2071C7.19086 11.9853 7.59106 11.8743 8.02051 11.8743H11.9788C12.4116 11.8743 12.8125 11.99 13.1816 12.2212C13.5507 12.4526 13.8384 12.758 14.0445 13.1373L14.6278 14.3248C14.755 14.5928 14.9436 14.807 15.1936 14.9673C15.4436 15.1275 15.7204 15.2077 16.0238 15.2077C16.4712 15.2077 16.8547 15.0578 17.1743 14.7581C17.4938 14.4585 17.6579 14.0875 17.6663 13.6452C17.6663 13.6377 17.6498 13.4897 17.6168 13.2012L15.8668 6.22206C15.7588 5.80428 15.539 5.46136 15.2072 5.19331C14.8755 4.92511 14.4938 4.79102 14.0622 4.79102H5.93717C5.49981 4.79102 5.11322 4.92511 4.77738 5.19331C4.44155 5.46136 4.22662 5.80428 4.13259 6.22206L2.38259 13.2012C2.36023 13.2739 2.3437 13.4149 2.33301 13.6243C2.33301 14.0721 2.49676 14.448 2.82426 14.7518C3.15162 15.0557 3.54412 15.2077 4.00176 15.2077ZM11.2497 9.06977C11.4537 9.06977 11.6276 8.99796 11.7713 8.85435C11.915 8.7106 11.9868 8.53671 11.9868 8.33268C11.9868 8.12865 11.915 7.95477 11.7713 7.81102C11.6276 7.6674 11.4537 7.5956 11.2497 7.5956C11.0456 7.5956 10.8718 7.6674 10.728 7.81102C10.5844 7.95477 10.5126 8.12865 10.5126 8.33268C10.5126 8.53671 10.5844 8.7106 10.728 8.85435C10.8718 8.99796 11.0456 9.06977 11.2497 9.06977ZM12.9163 7.4031C13.1204 7.4031 13.2943 7.33129 13.438 7.18768C13.5816 7.04393 13.6534 6.87004 13.6534 6.66602C13.6534 6.46199 13.5816 6.2881 13.438 6.14435C13.2943 6.00074 13.1204 5.92893 12.9163 5.92893C12.7123 5.92893 12.5384 6.00074 12.3947 6.14435C12.2511 6.2881 12.1793 6.46199 12.1793 6.66602C12.1793 6.87004 12.2511 7.04393 12.3947 7.18768C12.5384 7.33129 12.7123 7.4031 12.9163 7.4031ZM12.9163 10.7364C13.1204 10.7364 13.2943 10.6646 13.438 10.521C13.5816 10.3773 13.6534 10.2034 13.6534 9.99935C13.6534 9.79532 13.5816 9.62143 13.438 9.47768C13.2943 9.33407 13.1204 9.26227 12.9163 9.26227C12.7123 9.26227 12.5384 9.33407 12.3947 9.47768C12.2511 9.62143 12.1793 9.79532 12.1793 9.99935C12.1793 10.2034 12.2511 10.3773 12.3947 10.521C12.5384 10.6646 12.7123 10.7364 12.9163 10.7364ZM14.583 9.06977C14.787 9.06977 14.9609 8.99796 15.1047 8.85435C15.2483 8.7106 15.3201 8.53671 15.3201 8.33268C15.3201 8.12865 15.2483 7.95477 15.1047 7.81102C14.9609 7.6674 14.787 7.5956 14.583 7.5956C14.379 7.5956 14.2051 7.6674 14.0613 7.81102C13.9177 7.95477 13.8459 8.12865 13.8459 8.33268C13.8459 8.53671 13.9177 8.7106 14.0613 8.85435C14.2051 8.99796 14.379 9.06977 14.583 9.06977ZM7.08259 10.2879C7.22606 10.2879 7.34481 10.2409 7.43884 10.1471C7.53287 10.0532 7.57988 9.93449 7.57988 9.79102V8.82956H8.54134C8.68481 8.82956 8.80349 8.78261 8.89738 8.68872C8.99127 8.59497 9.03822 8.47643 9.03822 8.3331C9.03822 8.18963 8.99127 8.07088 8.89738 7.97685C8.80349 7.88282 8.68481 7.83581 8.54134 7.83581H7.57988V6.87435C7.57988 6.73088 7.53294 6.6122 7.43905 6.51831C7.3453 6.42442 7.22676 6.37747 7.08343 6.37747C6.93995 6.37747 6.8212 6.42442 6.72718 6.51831C6.63315 6.6122 6.58613 6.73088 6.58613 6.87435V7.83581H5.62467C5.4812 7.83581 5.36252 7.88275 5.26863 7.97664C5.17474 8.07039 5.1278 8.18893 5.1278 8.33227C5.1278 8.47574 5.17474 8.59449 5.26863 8.68852C5.36252 8.78254 5.4812 8.82956 5.62467 8.82956H6.58613V9.79102C6.58613 9.93449 6.63308 10.0532 6.72697 10.1471C6.82072 10.2409 6.93926 10.2879 7.08259 10.2879Z" fill="white"/>
</g>
</svg>
