<svg width="16" height="16" viewBox="0 0 16 16" fill="none" xmlns="http://www.w3.org/2000/svg">
<path d="M15.465 9.83565L9.83516 15.4654C9.68377 15.616 9.51343 15.729 9.32412 15.8044C9.13482 15.8797 8.94607 15.9173 8.75787 15.9173C8.56954 15.9173 8.3812 15.8797 8.19287 15.8044C8.00454 15.729 7.83509 15.616 7.68454 15.4654L0.522663 8.31148C0.380579 8.17482 0.271829 8.0144 0.196413 7.83024C0.121135 7.64607 0.0834961 7.45232 0.0834961 7.24898V1.59836C0.0834961 1.18197 0.230649 0.825442 0.524954 0.528776C0.819399 0.232248 1.17704 0.0839844 1.59787 0.0839844H7.2485C7.44975 0.0839844 7.64468 0.124818 7.83329 0.206484C8.02204 0.288012 8.18558 0.397804 8.32391 0.535859L15.465 7.68982C15.6176 7.84121 15.7289 8.01148 15.7989 8.20065C15.8689 8.38996 15.9039 8.57975 15.9039 8.77003C15.9039 8.9603 15.8689 9.14739 15.7989 9.33128C15.7289 9.5153 15.6176 9.68343 15.465 9.83565ZM8.94412 14.5871L14.5739 8.95732C14.6272 8.90399 14.6539 8.84121 14.6539 8.76898C14.6539 8.6969 14.6272 8.63419 14.5739 8.58086L7.33995 1.3419H1.59787C1.52315 1.3419 1.46037 1.366 1.40954 1.41419C1.35884 1.46225 1.3335 1.52364 1.3335 1.59836V7.23628C1.3335 7.26836 1.33884 7.30037 1.34954 7.33232C1.36023 7.3644 1.37891 7.39378 1.40558 7.42044L8.56746 14.5871C8.62093 14.6406 8.6837 14.6673 8.75579 14.6673C8.82787 14.6673 8.89065 14.6406 8.94412 14.5871ZM3.43766 4.48294C3.72822 4.48294 3.97502 4.38169 4.17808 4.17919C4.381 3.97669 4.48245 3.73072 4.48245 3.44128C4.48245 3.14975 4.3812 2.90197 4.1787 2.69794C3.9762 2.49378 3.73023 2.39169 3.44079 2.39169C3.14926 2.39169 2.90148 2.49343 2.69745 2.6969C2.49329 2.90037 2.3912 3.14746 2.3912 3.43815C2.3912 3.72871 2.49294 3.97551 2.69641 4.17857C2.89988 4.38148 3.14697 4.48294 3.43766 4.48294Z" fill="white"/>
</svg>
