<svg width="20" height="20" viewBox="0 0 20 20" fill="none" xmlns="http://www.w3.org/2000/svg">
<mask id="mask0_309_2987" style="mask-type:alpha" maskUnits="userSpaceOnUse" x="0" y="0" width="20" height="20">
<rect width="20" height="20" fill="#D9D9D9"/>
</mask>
<g mask="url(#mask0_309_2987)">
<path d="M4.99984 17.9173C4.41761 17.9173 3.92484 17.7157 3.5215 17.3123C3.11817 16.909 2.9165 16.4162 2.9165 15.834V14.9365C2.9165 14.5223 3.064 14.1677 3.359 13.8727C3.654 13.5777 4.00866 13.4302 4.42296 13.4302H5.4165V3.59044C5.4165 3.17614 5.564 2.82148 5.859 2.52648C6.154 2.23148 6.50866 2.08398 6.92296 2.08398H15.5767C15.991 2.08398 16.3457 2.23148 16.6407 2.52648C16.9357 2.82148 17.0832 3.17614 17.0832 3.59044V15.834C17.0832 16.4162 16.8815 16.909 16.4782 17.3123C16.0748 17.7157 15.5821 17.9173 14.9998 17.9173H4.99984ZM14.9998 16.6673C15.2359 16.6673 15.4339 16.5875 15.5936 16.4277C15.7533 16.268 15.8332 16.0701 15.8332 15.834V3.59044C15.8332 3.51558 15.8091 3.45412 15.7611 3.40607C15.713 3.35801 15.6516 3.33398 15.5767 3.33398H6.92296C6.8481 3.33398 6.78664 3.35801 6.73859 3.40607C6.69053 3.45412 6.6665 3.51558 6.6665 3.59044V13.4302H12.66C13.0744 13.4302 13.429 13.5777 13.724 13.8727C14.019 14.1677 14.1665 14.5223 14.1665 14.9365V15.834C14.1665 16.0701 14.2464 16.268 14.4061 16.4277C14.5658 16.5875 14.7637 16.6673 14.9998 16.6673ZM8.28505 7.24419C8.10796 7.24419 7.95956 7.18426 7.83984 7.0644C7.71998 6.94454 7.66005 6.79607 7.66005 6.61898C7.66005 6.44176 7.71998 6.29336 7.83984 6.17378C7.95956 6.05405 8.10796 5.99419 8.28505 5.99419H14.2146C14.3917 5.99419 14.5401 6.05412 14.6598 6.17398C14.7797 6.29385 14.8396 6.44239 14.8396 6.61961C14.8396 6.79669 14.7797 6.9451 14.6598 7.06482C14.5401 7.1844 14.3917 7.24419 14.2146 7.24419H8.28505ZM8.28505 9.64815C8.10796 9.64815 7.95956 9.58822 7.83984 9.46836C7.71998 9.3485 7.66005 9.19996 7.66005 9.02273C7.66005 8.84565 7.71998 8.69725 7.83984 8.57753C7.95956 8.45794 8.10796 8.39815 8.28505 8.39815H14.2146C14.3917 8.39815 14.5401 8.45808 14.6598 8.57794C14.7797 8.69767 14.8396 8.84614 14.8396 9.02336C14.8396 9.20058 14.7797 9.34898 14.6598 9.46857C14.5401 9.58829 14.3917 9.64815 14.2146 9.64815H8.28505ZM4.99984 16.6673H12.9165V14.9365C12.9165 14.8618 12.8925 14.8004 12.8444 14.7523C12.7964 14.7041 12.7349 14.68 12.66 14.68H4.42296C4.3481 14.68 4.28664 14.7041 4.23859 14.7523C4.19053 14.8004 4.1665 14.8618 4.1665 14.9365V15.834C4.1665 16.0701 4.24636 16.268 4.40609 16.4277C4.56581 16.5875 4.76373 16.6673 4.99984 16.6673ZM4.99984 16.6673H4.1665H12.9165H4.99984Z" fill="white"/>
</g>
</svg>
