<svg width="20" height="20" viewBox="0 0 20 20" fill="none" xmlns="http://www.w3.org/2000/svg">
<mask id="mask0_309_3738" style="mask-type:alpha" maskUnits="userSpaceOnUse" x="0" y="0" width="20" height="20">
<rect width="20" height="20" fill="#D9D9D9"/>
</mask>
<g mask="url(#mask0_309_3738)">
<path d="M17.2437 15.9173C17.1753 16.0241 17.0618 16.0847 16.9032 16.0992C16.7445 16.1136 16.6021 16.0578 16.4759 15.9317L14.8078 14.2634H6.66678C6.26136 14.2634 5.91428 14.119 5.62553 13.8302C5.33678 13.5416 5.1924 13.1945 5.1924 12.789V12.2763H14.263C14.6772 12.2763 15.0318 12.1288 15.3268 11.8338C15.6218 11.5388 15.7693 11.1841 15.7693 10.7698V5.00065H16.2822C16.6876 5.00065 17.0347 5.14503 17.3234 5.43378C17.6122 5.72253 17.7566 6.06961 17.7566 6.47503V15.3917C17.7566 15.5454 17.7052 15.6715 17.6026 15.7698C17.5001 15.8681 17.3805 15.9173 17.2437 15.9173ZM3.49365 10.5392L4.67324 9.35961H12.5964C12.6711 9.35961 12.7325 9.33558 12.7805 9.28753C12.8286 9.23947 12.8526 9.17801 12.8526 9.10315V3.59044C12.8526 3.51558 12.8286 3.45412 12.7805 3.40607C12.7325 3.35801 12.6711 3.33398 12.5964 3.33398H3.75011C3.67539 3.33398 3.61393 3.35801 3.56574 3.40607C3.51768 3.45412 3.49365 3.51558 3.49365 3.59044V10.5392ZM2.99428 12.5038C2.80053 12.5038 2.62699 12.4333 2.47365 12.2923C2.32032 12.1512 2.24365 11.9652 2.24365 11.7342V3.59044C2.24365 3.17614 2.39115 2.82148 2.68615 2.52648C2.98115 2.23148 3.33581 2.08398 3.75011 2.08398H12.5964C13.0105 2.08398 13.3651 2.23148 13.6601 2.52648C13.9551 2.82148 14.1026 3.17614 14.1026 3.59044V9.10315C14.1026 9.51746 13.9551 9.87211 13.6601 10.1671C13.3651 10.4621 13.0105 10.6096 12.5964 10.6096H5.1924L3.52428 12.2779C3.44622 12.3559 3.36261 12.413 3.27344 12.4494C3.18414 12.4857 3.09108 12.5038 2.99428 12.5038Z" fill="white"/>
</g>
</svg>
