<svg width="16" height="16" viewBox="0 0 16 16" fill="none" xmlns="http://www.w3.org/2000/svg">
<mask id="mask0_163_6130" style="mask-type:alpha" maskUnits="userSpaceOnUse" x="0" y="0" width="16" height="16">
<rect width="16" height="16" fill="#D9D9D9"/>
</mask>
<g mask="url(#mask0_163_6130)">
<path d="M6.34588 10.4095C5.20743 10.4095 4.24332 10.0147 3.45354 9.22503C2.66388 8.43525 2.26904 7.47114 2.26904 6.33269C2.26904 5.19425 2.66388 4.23014 3.45354 3.44036C4.24332 2.65069 5.20743 2.25586 6.34588 2.25586C7.48432 2.25586 8.44843 2.65069 9.23821 3.44036C10.0279 4.23014 10.4227 5.19425 10.4227 6.33269C10.4227 6.8088 10.3428 7.26353 10.183 7.69686C10.0232 8.13019 9.80988 8.50708 9.54321 8.82753L13.3792 12.6635C13.4715 12.7557 13.5188 12.8717 13.5209 13.0115C13.523 13.1513 13.4758 13.2695 13.3792 13.366C13.2827 13.4626 13.1655 13.5109 13.0279 13.5109C12.8903 13.5109 12.7733 13.4626 12.6767 13.366L8.84071 9.53003C8.50738 9.80525 8.12404 10.0206 7.69071 10.1762C7.25738 10.3317 6.8091 10.4095 6.34588 10.4095ZM6.34588 9.40969C7.20488 9.40969 7.93243 9.11158 8.52854 8.51536C9.12477 7.91925 9.42288 7.19169 9.42288 6.33269C9.42288 5.47369 9.12477 4.74614 8.52854 4.15003C7.93243 3.5538 7.20488 3.25569 6.34588 3.25569C5.48688 3.25569 4.75932 3.5538 4.16321 4.15003C3.56699 4.74614 3.26888 5.47369 3.26888 6.33269C3.26888 7.19169 3.56699 7.91925 4.16321 8.51536C4.75932 9.11158 5.48688 9.40969 6.34588 9.40969Z" fill="white"/>
</g>
</svg>
