<svg width="25" height="24" viewBox="0 0 25 24" fill="none" xmlns="http://www.w3.org/2000/svg">
<mask id="mask0_163_7207" style="mask-type:alpha" maskUnits="userSpaceOnUse" x="0" y="0" width="25" height="24">
<rect x="0.25" width="24" height="24" fill="#D9D9D9"/>
</mask>
<g mask="url(#mask0_163_7207)">
<path d="M12.2496 16.688L8.35939 19.034C8.21439 19.1187 8.06914 19.1543 7.92364 19.1407C7.77814 19.1272 7.64648 19.0783 7.52864 18.9938C7.41064 18.9091 7.31956 18.7985 7.25539 18.662C7.19139 18.5255 7.18114 18.3745 7.22464 18.209L8.25739 13.7917L4.82289 10.8187C4.69456 10.7073 4.61281 10.5781 4.57764 10.4313C4.54231 10.2844 4.55156 10.1418 4.60539 10.0033C4.65923 9.86492 4.73681 9.75183 4.83814 9.664C4.93948 9.57617 5.07798 9.51875 5.25364 9.49175L9.78614 9.09575L11.5459 4.9245C11.6099 4.76933 11.707 4.65458 11.8371 4.58025C11.9673 4.50592 12.1048 4.46875 12.2496 4.46875C12.3945 4.46875 12.532 4.50592 12.6621 4.58025C12.7923 4.65458 12.8894 4.76933 12.9534 4.9245L14.7131 9.09575L19.2456 9.49175C19.4213 9.51875 19.5598 9.57617 19.6611 9.664C19.7625 9.75183 19.8401 9.86492 19.8939 10.0033C19.9477 10.1418 19.957 10.2844 19.9216 10.4313C19.8865 10.5781 19.8047 10.7073 19.6764 10.8187L16.2419 13.7917L17.2746 18.209C17.3181 18.3745 17.3079 18.5255 17.2439 18.662C17.1797 18.7985 17.0886 18.9091 16.9706 18.9938C16.8528 19.0783 16.7211 19.1272 16.5756 19.1407C16.4301 19.1543 16.2849 19.1187 16.1399 19.034L12.2496 16.688Z" fill="#C46A6A"/>
</g>
</svg>
